<svg viewBox="0 0 92 95" xmlns="http://www.w3.org/2000/svg" xmlns:xlink="http://www.w3.org/1999/xlink"><style>:root&gt;svg{display:none}:root&gt;svg:target{display:block}</style><svg viewBox="0 0 32 32" id="arrow_back" xmlns="http://www.w3.org/2000/svg"><path d="M4.292 15.708l6 6a1 1 0 001.414-1.414L7.414 16H22c4 0 6 3.692 6 7a1 1 0 002 0c0-4.412-2-9-8-9H7.414l4.292-4.292a1 1 0 00-1.414-1.414l-6 6a1 1 0 000 1.414z"/></svg><svg class="bred-1" viewBox="0 0 92 95" id="icon-1" xmlns="http://www.w3.org/2000/svg"><style/><path class="bred" fill="#2b72d8" d="M68.02 61.708a1.578 1.578 0 001.578 1.578h9.469a1.578 1.578 0 001.578-1.578V60.13H68.02zM86.538 8.46a17.591 17.591 0 015.15 12.21 12.31 12.31 0 01-5.029 10.805 10.731 10.731 0 00-4.314 6.554h-6.438v-9.611a9.479 9.479 0 007.891-9.327h-3.156a6.313 6.313 0 01-12.625 0H64.86a9.478 9.478 0 007.891 9.327v9.61h-6.437A10.731 10.731 0 0062 31.476a12.31 12.31 0 01-5.031-10.806A17.591 17.591 0 0174.33 3.31a17.591 17.591 0 0112.208 5.15zm-10.63 10.631H72.75v3.156h3.156zm7.888 31.569H64.858c-.871 0-1.578.707-1.578 1.578v3.156c0 .872.707 1.578 1.578 1.578h18.938c.871 0 1.578-.706 1.578-1.578v-3.156c0-.871-.707-1.578-1.578-1.578zm0-9.47H64.858c-.871 0-1.578.707-1.578 1.578v3.156c0 .872.707 1.578 1.578 1.578h18.938c.871 0 1.578-.706 1.578-1.578v-3.156c0-.871-.707-1.578-1.578-1.578zM26.98 31.72h3.156v3.156H26.98zm.006-11.044H6.47v3.156h20.516v4.734h3.156V14.363h14.203v-3.156H30.142V1.738A1.578 1.578 0 0028.564.16H9.626v3.156h17.36zM.16 20.67h3.156v3.156H.16zM47.5 11.2h3.156v3.156H47.5zM3.31.16h3.156v3.156H3.31zM6.75 61c0 .598.009 1.187 0 1.785-.01.332.1.442.428.35 1.177-.331 1.03-.083 1.04-1.297 0-.249 0-.488.064-.737.018.405.073.81.055 1.215-.019.423.146.543.538.46 1.094-.22 2.207-.211 3.31-.165 2.681.1 5.307.598 7.888 1.316.356.101.401.285.283.616-1.277 3.719.073 7.593 3.392 9.738.292.184.328.331.119.616-1.915 2.596-2.317 5.568-2.098 8.688.164 2.375.675 4.694 1.186 7.014.182.819.3 1.656.155 2.503-.255 1.491-1.15 1.933-2.408 1.896-1.222-.037-2.353-.479-3.438-1.003-3.264-1.583-6.064-3.82-8.626-6.388-1.988-1.988-3.74-4.15-5.007-6.681-1.35-2.688-2.344-5.486-2.553-8.523-.046-.718-.128-1.472-.037-2.144.192-1.27.538-2.531 1.24-3.663.921-1.5 2.253-2.458 3.821-3.12.402-.166.575-.396.557-.82-.019-.552 0-1.104 0-1.647.036 0 .064-.009.09-.009zm38.866 2.755c.167.982.167.982.891.442.353-.262.687-.56 1.04-.83.204-.153.26-.36.297-.693.084.315.214.333.381.189.687-.604 1.411-1.172 2.061-1.82.65-.65 1.867-1.56 2.684-1.857 1.114-.406 1.996-.153 2.665.811.678.973.864 2.109 1.021 3.244.214 1.56.149 3.11.01 4.668-.019.235-.065.496.334.604-.371.1-.4.352-.436.613-.409 3.28-1.235 6.461-2.554 9.507-.9 2.082-2.164 3.975-3.65 5.723-1.104 1.307-2.32 2.505-3.732 3.487-1.718 1.2-3.584 2.1-5.757 2.154-2.145.054-3.984-.72-5.572-2.1-1.782-1.55-2.999-3.496-4.011-5.569a30.717 30.717 0 01-2.21-6.11c-.14-.568-.149-.568.455-.694 3.538-.73 6.175-3.478 6.64-6.92.027-.208.036-.424.027-.632-.037-.423.158-.558.585-.513 2.517.297 4.81-.379 6.983-1.532.408-.217.79-.478 1.198-.685.464-.234.715-.559.64-1.082-.027-.08-.009-.18.01-.405zM43 48.51c-.018 1.924-.613 3.692-1.463 5.387-1.289 2.556-3.025 4.781-5 6.842-.356.376-.74.724-1.097 1.1-.228.238-.384.201-.594-.037-1.718-1.997-3.894-2.968-6.517-2.913a7.442 7.442 0 00-3.575.971c-.256.147-.43.174-.567-.147-1.115-2.583-3.062-4.35-5.466-5.688-2.102-1.163-4.37-1.933-6.646-2.666-.795-.256-1.6-.494-2.358-.86a4.304 4.304 0 01-.74-.45c-1.024-.769-1.253-1.822-.64-2.949.484-.889 1.197-1.585 2.002-2.171 4.707-3.408 10.055-5.139 15.759-5.817 1.91-.229 3.83-.082 5.731.211 2.441.376 4.8 1.026 6.93 2.318 2.166 1.31 3.702 3.105 4.113 5.697.064.385.082.779.128 1.173z"/><path class="bred" fill="#2b72d8" d="M28.473 73.998c-3.625 0-6.473-2.86-6.473-6.49 0-3.647 2.866-6.517 6.509-6.508 3.598 0 6.455 2.897 6.49 6.508.028 3.558-2.946 6.57-6.526 6.49z"/></svg></svg>